# xmcd
#
# Track frame offsets:
#	150
#	17631
#	34143
#	48073
#	65101
#	81185
#	95855
#	111923
#	132948
#	151336
#	165409
#	184526
#	198952
#	214640
#	233509
#	251757
#	269451
#	287610
#	300449
#	317294
#
# Disc length: 4461 seconds
#
# Revision: 1
# Processed by: cddbd v1.5.2PL0 Copyright (c) Steve Scherf et al.
# Submitted via: audiograbber 1.83.01
#
DISCID=08116b14
DTITLE=Bellamy Brothers - Best of the Best Vol 3
DYEAR=2001
DGENRE=Country
TTITLE0=Blame it .. on the fire in my heart
TTITLE1=Vertical expression (of horizontal desire)
TTITLE2=(Don't put me in) the ex files
TTITLE3=Some broken hearts
TTITLE4=Feel free
TTITLE5=Bubba
TTITLE6=Catahoula
TTITLE7=Anyway I can
TTITLE8=Rollin thunder
TTITLE9=The Andy Griffith show
TTITLE10=Almost Jamaica
TTITLE11=Stayin in love
TTITLE12=Forever ain't long enough
TTITLE13=Old country/New country
TTITLE14=Blue rodeo
TTITLE15=Hard on a heart
TTITLE16=Our love
TTITLE17=My wife left me for...
TTITLE18=Kookaburra blues
TTITLE19=I'll fly away
EXTD=
EXTT0=
EXTT1=
EXTT2=
EXTT3=
EXTT4=
EXTT5=
EXTT6=
EXTT7=
EXTT8=
EXTT9=
EXTT10=
EXTT11=
EXTT12=
EXTT13=
EXTT14=
EXTT15=
EXTT16=
EXTT17=
EXTT18=
EXTT19=
PLAYORDER=
